<mxfile host="app.diagrams.net" agent="Mozilla/5.0 (Windows NT 10.0; Win64; x64) AppleWebKit/537.36 (KHTML, like Gecko) Chrome/141.0.0.0 Safari/537.36" version="28.2.7">
  <diagram name="Página-1" id="8bRNhRTH2jLvq1Tch3Zt">
    <mxGraphModel dx="2222" dy="888" grid="1" gridSize="10" guides="1" tooltips="1" connect="1" arrows="1" fold="1" page="1" pageScale="1" pageWidth="827" pageHeight="1169" math="0" shadow="0">
      <root>
        <mxCell id="0" />
        <mxCell id="1" parent="0" />
        <mxCell id="9jalgnRsGFIglaP575ed-2" value="ADMINISTRADOR" style="swimlane;childLayout=stackLayout;horizontal=1;startSize=50;horizontalStack=0;rounded=1;fontSize=14;fontStyle=0;strokeWidth=2;resizeParent=0;resizeLast=1;shadow=0;dashed=0;align=center;arcSize=4;whiteSpace=wrap;html=1;fillColor=#dae8fc;strokeColor=#6c8ebf;" vertex="1" parent="1">
          <mxGeometry x="-40" y="340" width="160" height="120" as="geometry" />
        </mxCell>
        <mxCell id="9jalgnRsGFIglaP575ed-3" value="&lt;u&gt;Id&lt;/u&gt;&lt;div&gt;Nome&lt;/div&gt;&lt;div&gt;User&lt;/div&gt;&lt;div&gt;Pass&lt;/div&gt;" style="align=left;strokeColor=#6c8ebf;fillColor=#dae8fc;spacingLeft=4;spacingRight=4;fontSize=12;verticalAlign=top;resizable=0;rotatable=0;part=1;html=1;whiteSpace=wrap;" vertex="1" parent="9jalgnRsGFIglaP575ed-2">
          <mxGeometry y="50" width="160" height="70" as="geometry" />
        </mxCell>
        <mxCell id="9jalgnRsGFIglaP575ed-4" value="ADMINISTRADOR_LOG" style="swimlane;childLayout=stackLayout;horizontal=1;startSize=50;horizontalStack=0;rounded=1;fontSize=14;fontStyle=0;strokeWidth=2;resizeParent=0;resizeLast=1;shadow=0;dashed=0;align=center;arcSize=4;whiteSpace=wrap;html=1;fillColor=#dae8fc;strokeColor=#6c8ebf;" vertex="1" parent="1">
          <mxGeometry x="-40" y="560" width="160" height="110" as="geometry" />
        </mxCell>
        <mxCell id="9jalgnRsGFIglaP575ed-5" value="IdAdministrador&lt;div&gt;DataLog&lt;/div&gt;&lt;div&gt;Log&lt;/div&gt;" style="align=left;strokeColor=#6c8ebf;fillColor=#dae8fc;spacingLeft=4;spacingRight=4;fontSize=12;verticalAlign=top;resizable=0;rotatable=0;part=1;html=1;whiteSpace=wrap;" vertex="1" parent="9jalgnRsGFIglaP575ed-4">
          <mxGeometry y="50" width="160" height="60" as="geometry" />
        </mxCell>
        <mxCell id="9jalgnRsGFIglaP575ed-6" value="TIPO_ATRIBUTO" style="swimlane;childLayout=stackLayout;horizontal=1;startSize=50;horizontalStack=0;rounded=1;fontSize=14;fontStyle=0;strokeWidth=2;resizeParent=0;resizeLast=1;shadow=0;dashed=0;align=center;arcSize=4;whiteSpace=wrap;html=1;fillColor=#dae8fc;strokeColor=#6c8ebf;" vertex="1" parent="1">
          <mxGeometry x="210" y="870" width="160" height="110" as="geometry" />
        </mxCell>
        <mxCell id="9jalgnRsGFIglaP575ed-7" value="&lt;u&gt;Id&lt;/u&gt;&lt;br&gt;&lt;div&gt;Ordem&lt;/div&gt;&lt;div&gt;TipoAtributo&lt;/div&gt;" style="align=left;strokeColor=#6c8ebf;fillColor=#dae8fc;spacingLeft=4;spacingRight=4;fontSize=12;verticalAlign=top;resizable=0;rotatable=0;part=1;html=1;whiteSpace=wrap;" vertex="1" parent="9jalgnRsGFIglaP575ed-6">
          <mxGeometry y="50" width="160" height="60" as="geometry" />
        </mxCell>
        <mxCell id="9jalgnRsGFIglaP575ed-8" value="ATRIBUTO" style="swimlane;childLayout=stackLayout;horizontal=1;startSize=50;horizontalStack=0;rounded=1;fontSize=14;fontStyle=0;strokeWidth=2;resizeParent=0;resizeLast=1;shadow=0;dashed=0;align=center;arcSize=4;whiteSpace=wrap;html=1;fillColor=#dae8fc;strokeColor=#6c8ebf;" vertex="1" parent="1">
          <mxGeometry x="590" y="860" width="160" height="130" as="geometry" />
        </mxCell>
        <mxCell id="9jalgnRsGFIglaP575ed-9" value="&lt;u&gt;Id&lt;/u&gt;&lt;div&gt;Atributo&lt;/div&gt;&lt;div&gt;Ordem&lt;/div&gt;&lt;div&gt;Icone ?&lt;/div&gt;&lt;div&gt;IdTipoAtributo&lt;/div&gt;" style="align=left;strokeColor=#6c8ebf;fillColor=#dae8fc;spacingLeft=4;spacingRight=4;fontSize=12;verticalAlign=top;resizable=0;rotatable=0;part=1;html=1;whiteSpace=wrap;" vertex="1" parent="9jalgnRsGFIglaP575ed-8">
          <mxGeometry y="50" width="160" height="80" as="geometry" />
        </mxCell>
        <mxCell id="9jalgnRsGFIglaP575ed-10" value="IMOVEL" style="swimlane;childLayout=stackLayout;horizontal=1;startSize=50;horizontalStack=0;rounded=1;fontSize=14;fontStyle=0;strokeWidth=2;resizeParent=0;resizeLast=1;shadow=0;dashed=0;align=center;arcSize=4;whiteSpace=wrap;html=1;fillColor=#dae8fc;strokeColor=#6c8ebf;" vertex="1" parent="1">
          <mxGeometry x="450" y="440" width="160" height="180" as="geometry" />
        </mxCell>
        <mxCell id="9jalgnRsGFIglaP575ed-11" value="&lt;u&gt;Id&lt;/u&gt;&lt;div&gt;Titulo&lt;/div&gt;&lt;div&gt;Preço&lt;/div&gt;&lt;div&gt;NumWC&lt;/div&gt;&lt;div&gt;NumQuartos&lt;/div&gt;&lt;div&gt;LatitudeLongitude&lt;/div&gt;&lt;div&gt;IdTipoImovel&lt;/div&gt;&lt;div&gt;IdLocalidade&lt;/div&gt;" style="align=left;strokeColor=#6c8ebf;fillColor=#dae8fc;spacingLeft=4;spacingRight=4;fontSize=12;verticalAlign=top;resizable=0;rotatable=0;part=1;html=1;whiteSpace=wrap;" vertex="1" parent="9jalgnRsGFIglaP575ed-10">
          <mxGeometry y="50" width="160" height="130" as="geometry" />
        </mxCell>
        <mxCell id="9jalgnRsGFIglaP575ed-12" style="edgeStyle=orthogonalEdgeStyle;rounded=0;orthogonalLoop=1;jettySize=auto;html=1;exitX=0.5;exitY=1;exitDx=0;exitDy=0;fillColor=#dae8fc;strokeColor=#6c8ebf;" edge="1" parent="9jalgnRsGFIglaP575ed-10" source="9jalgnRsGFIglaP575ed-11" target="9jalgnRsGFIglaP575ed-11">
          <mxGeometry relative="1" as="geometry" />
        </mxCell>
        <mxCell id="9jalgnRsGFIglaP575ed-13" value="FOTO" style="swimlane;childLayout=stackLayout;horizontal=1;startSize=50;horizontalStack=0;rounded=1;fontSize=14;fontStyle=0;strokeWidth=2;resizeParent=0;resizeLast=1;shadow=0;dashed=0;align=center;arcSize=4;whiteSpace=wrap;html=1;fillColor=#e1d5e7;strokeColor=#9673a6;" vertex="1" parent="1">
          <mxGeometry x="220" y="390" width="160" height="90" as="geometry" />
        </mxCell>
        <mxCell id="9jalgnRsGFIglaP575ed-14" value="&lt;u&gt;Id&lt;/u&gt;&lt;div&gt;Foto&lt;/div&gt;" style="align=left;strokeColor=#9673a6;fillColor=#e1d5e7;spacingLeft=4;spacingRight=4;fontSize=12;verticalAlign=top;resizable=0;rotatable=0;part=1;html=1;whiteSpace=wrap;" vertex="1" parent="9jalgnRsGFIglaP575ed-13">
          <mxGeometry y="50" width="160" height="40" as="geometry" />
        </mxCell>
        <mxCell id="9jalgnRsGFIglaP575ed-16" value="TIPO_IMOVEL" style="swimlane;childLayout=stackLayout;horizontal=1;startSize=50;horizontalStack=0;rounded=1;fontSize=14;fontStyle=0;strokeWidth=2;resizeParent=0;resizeLast=1;shadow=0;dashed=0;align=center;arcSize=4;whiteSpace=wrap;html=1;fillColor=#dae8fc;strokeColor=#6c8ebf;" vertex="1" parent="1">
          <mxGeometry x="450" y="260" width="160" height="90" as="geometry" />
        </mxCell>
        <mxCell id="9jalgnRsGFIglaP575ed-17" value="&lt;u&gt;Id&lt;/u&gt;&lt;div&gt;TipoImovel&lt;/div&gt;" style="align=left;strokeColor=#6c8ebf;fillColor=#dae8fc;spacingLeft=4;spacingRight=4;fontSize=12;verticalAlign=top;resizable=0;rotatable=0;part=1;html=1;whiteSpace=wrap;" vertex="1" parent="9jalgnRsGFIglaP575ed-16">
          <mxGeometry y="50" width="160" height="40" as="geometry" />
        </mxCell>
        <mxCell id="9jalgnRsGFIglaP575ed-18" value="CIDADE" style="swimlane;childLayout=stackLayout;horizontal=1;startSize=50;horizontalStack=0;rounded=1;fontSize=14;fontStyle=0;strokeWidth=2;resizeParent=0;resizeLast=1;shadow=0;dashed=0;align=center;arcSize=4;whiteSpace=wrap;html=1;fillColor=#dae8fc;strokeColor=#6c8ebf;" vertex="1" parent="1">
          <mxGeometry x="770" y="250" width="160" height="90" as="geometry" />
        </mxCell>
        <mxCell id="9jalgnRsGFIglaP575ed-19" value="&lt;u&gt;Id&lt;/u&gt;&lt;div&gt;Cidade&lt;/div&gt;" style="align=left;strokeColor=#6c8ebf;fillColor=#dae8fc;spacingLeft=4;spacingRight=4;fontSize=12;verticalAlign=top;resizable=0;rotatable=0;part=1;html=1;whiteSpace=wrap;" vertex="1" parent="9jalgnRsGFIglaP575ed-18">
          <mxGeometry y="50" width="160" height="40" as="geometry" />
        </mxCell>
        <mxCell id="9jalgnRsGFIglaP575ed-20" value="LOCALIDADE" style="swimlane;childLayout=stackLayout;horizontal=1;startSize=50;horizontalStack=0;rounded=1;fontSize=14;fontStyle=0;strokeWidth=2;resizeParent=0;resizeLast=1;shadow=0;dashed=0;align=center;arcSize=4;whiteSpace=wrap;html=1;fillColor=#dae8fc;strokeColor=#6c8ebf;" vertex="1" parent="1">
          <mxGeometry x="820" y="580" width="160" height="110" as="geometry" />
        </mxCell>
        <mxCell id="9jalgnRsGFIglaP575ed-21" value="&lt;u&gt;Id&lt;/u&gt;&lt;div&gt;Localidade&lt;/div&gt;&lt;div&gt;IdCidade&lt;/div&gt;" style="align=left;strokeColor=#6c8ebf;fillColor=#dae8fc;spacingLeft=4;spacingRight=4;fontSize=12;verticalAlign=top;resizable=0;rotatable=0;part=1;html=1;whiteSpace=wrap;" vertex="1" parent="9jalgnRsGFIglaP575ed-20">
          <mxGeometry y="50" width="160" height="60" as="geometry" />
        </mxCell>
        <mxCell id="9jalgnRsGFIglaP575ed-22" style="edgeStyle=orthogonalEdgeStyle;rounded=0;orthogonalLoop=1;jettySize=auto;html=1;exitX=0;exitY=0.25;exitDx=0;exitDy=0;entryX=0.006;entryY=0.171;entryDx=0;entryDy=0;entryPerimeter=0;" edge="1" parent="1" source="9jalgnRsGFIglaP575ed-5" target="9jalgnRsGFIglaP575ed-3">
          <mxGeometry relative="1" as="geometry" />
        </mxCell>
        <mxCell id="9jalgnRsGFIglaP575ed-23" style="edgeStyle=orthogonalEdgeStyle;rounded=0;orthogonalLoop=1;jettySize=auto;html=1;exitX=0;exitY=0.75;exitDx=0;exitDy=0;entryX=0;entryY=0.25;entryDx=0;entryDy=0;" edge="1" parent="1" source="9jalgnRsGFIglaP575ed-21" target="9jalgnRsGFIglaP575ed-19">
          <mxGeometry relative="1" as="geometry">
            <Array as="points">
              <mxPoint x="750" y="675" />
              <mxPoint x="750" y="310" />
            </Array>
          </mxGeometry>
        </mxCell>
        <mxCell id="9jalgnRsGFIglaP575ed-25" style="edgeStyle=orthogonalEdgeStyle;rounded=0;orthogonalLoop=1;jettySize=auto;html=1;exitX=0;exitY=0.75;exitDx=0;exitDy=0;entryX=0;entryY=0.25;entryDx=0;entryDy=0;" edge="1" parent="1" source="9jalgnRsGFIglaP575ed-11" target="9jalgnRsGFIglaP575ed-17">
          <mxGeometry relative="1" as="geometry" />
        </mxCell>
        <mxCell id="9jalgnRsGFIglaP575ed-27" style="edgeStyle=orthogonalEdgeStyle;rounded=0;orthogonalLoop=1;jettySize=auto;html=1;exitX=0;exitY=0.5;exitDx=0;exitDy=0;entryX=0.003;entryY=0.151;entryDx=0;entryDy=0;entryPerimeter=0;" edge="1" parent="1" source="9jalgnRsGFIglaP575ed-14" target="9jalgnRsGFIglaP575ed-11">
          <mxGeometry relative="1" as="geometry" />
        </mxCell>
        <mxCell id="9jalgnRsGFIglaP575ed-28" style="edgeStyle=orthogonalEdgeStyle;rounded=0;orthogonalLoop=1;jettySize=auto;html=1;exitX=0;exitY=1;exitDx=0;exitDy=0;entryX=0;entryY=0.25;entryDx=0;entryDy=0;" edge="1" parent="1" source="9jalgnRsGFIglaP575ed-9" target="9jalgnRsGFIglaP575ed-7">
          <mxGeometry relative="1" as="geometry">
            <Array as="points">
              <mxPoint x="590" y="1010" />
              <mxPoint x="480" y="1010" />
              <mxPoint x="480" y="860" />
              <mxPoint x="190" y="860" />
              <mxPoint x="190" y="935" />
            </Array>
          </mxGeometry>
        </mxCell>
        <mxCell id="9jalgnRsGFIglaP575ed-29" value="TEM" style="swimlane;childLayout=stackLayout;horizontal=1;startSize=50;horizontalStack=0;rounded=1;fontSize=14;fontStyle=0;strokeWidth=2;resizeParent=0;resizeLast=1;shadow=0;dashed=0;align=center;arcSize=4;whiteSpace=wrap;html=1;fillColor=#f8cecc;strokeColor=#b85450;" vertex="1" parent="1">
          <mxGeometry x="450" y="690" width="160" height="90" as="geometry" />
        </mxCell>
        <mxCell id="9jalgnRsGFIglaP575ed-30" value="&lt;u&gt;IdImovel&lt;/u&gt;&lt;div&gt;&lt;u&gt;IdAtributo&lt;/u&gt;&lt;/div&gt;" style="align=left;strokeColor=#b85450;fillColor=#f8cecc;spacingLeft=4;spacingRight=4;fontSize=12;verticalAlign=top;resizable=0;rotatable=0;part=1;html=1;whiteSpace=wrap;" vertex="1" parent="9jalgnRsGFIglaP575ed-29">
          <mxGeometry y="50" width="160" height="40" as="geometry" />
        </mxCell>
        <mxCell id="9jalgnRsGFIglaP575ed-31" style="edgeStyle=orthogonalEdgeStyle;rounded=0;orthogonalLoop=1;jettySize=auto;html=1;exitX=0;exitY=0.5;exitDx=0;exitDy=0;entryX=0.003;entryY=0.096;entryDx=0;entryDy=0;entryPerimeter=0;" edge="1" parent="1" source="9jalgnRsGFIglaP575ed-30" target="9jalgnRsGFIglaP575ed-11">
          <mxGeometry relative="1" as="geometry">
            <Array as="points">
              <mxPoint x="410" y="760" />
              <mxPoint x="410" y="503" />
            </Array>
          </mxGeometry>
        </mxCell>
        <mxCell id="9jalgnRsGFIglaP575ed-32" style="edgeStyle=orthogonalEdgeStyle;rounded=0;orthogonalLoop=1;jettySize=auto;html=1;exitX=0;exitY=0.75;exitDx=0;exitDy=0;entryX=0.003;entryY=0.138;entryDx=0;entryDy=0;entryPerimeter=0;" edge="1" parent="1" source="9jalgnRsGFIglaP575ed-30" target="9jalgnRsGFIglaP575ed-9">
          <mxGeometry relative="1" as="geometry" />
        </mxCell>
        <mxCell id="9jalgnRsGFIglaP575ed-35" value="" style="endArrow=classic;html=1;rounded=0;exitX=0.005;exitY=0.892;exitDx=0;exitDy=0;exitPerimeter=0;edgeStyle=orthogonalEdgeStyle;entryX=0;entryY=0.25;entryDx=0;entryDy=0;" edge="1" parent="1" source="9jalgnRsGFIglaP575ed-11" target="9jalgnRsGFIglaP575ed-21">
          <mxGeometry width="50" height="50" relative="1" as="geometry">
            <mxPoint x="640" y="670" as="sourcePoint" />
            <mxPoint x="420" y="650" as="targetPoint" />
          </mxGeometry>
        </mxCell>
      </root>
    </mxGraphModel>
  </diagram>
</mxfile>
